<svg xmlns="http://www.w3.org/2000/svg" width="194.54" height="39.262" viewBox="0 0 194.54 39.262">
  <g id="Grupo_2204" data-name="Grupo 2204" transform="translate(-166.631 -787.096)">
    <g id="Grupo_2201" data-name="Grupo 2201" transform="translate(166.631 787.096)">
      <path id="Trazado_11664" data-name="Trazado 11664" d="M208.271,827.028h.513a1.134,1.134,0,0,1,1.178-1.081H225.5c-.014-.173-.029-.343-.05-.513H209.962a1.645,1.645,0,0,0-1.691,1.595" transform="translate(-192.259 -810.691)" fill="#040707"/>
      <path id="Trazado_11665" data-name="Trazado 11665" d="M203.09,824.063h.515a3.059,3.059,0,0,1,3.169-2.932h15.275c-.032-.173-.074-.343-.113-.515H206.773a3.574,3.574,0,0,0-3.683,3.447" transform="translate(-189.07 -807.726)" fill="#040707"/>
      <path id="Trazado_11666" data-name="Trazado 11666" d="M197.889,821.086h.515a5,5,0,0,1,5.168-4.794h14.79c-.052-.17-.112-.343-.173-.513H203.572a5.512,5.512,0,0,0-5.683,5.307" transform="translate(-185.869 -804.749)" fill="#040707"/>
      <path id="Trazado_11667" data-name="Trazado 11667" d="M192.691,818.112h.513a6.932,6.932,0,0,1,7.169-6.652h14.062c-.08-.173-.159-.345-.248-.513H200.373a7.443,7.443,0,0,0-7.682,7.165" transform="translate(-182.67 -801.776)" fill="#040707"/>
      <path id="Trazado_11668" data-name="Trazado 11668" d="M187.489,815.133H188c0-4.694,4.113-8.512,9.168-8.512h13.056c-.11-.173-.22-.347-.332-.515H197.171c-5.338,0-9.682,4.049-9.682,9.027" transform="translate(-179.468 -798.796)" fill="#040707"/>
      <path id="Trazado_11669" data-name="Trazado 11669" d="M182.287,812.152h.513c0-5.721,5.011-10.372,11.17-10.372l11.7,0c-.147-.173-.294-.348-.448-.513l-11.252,0c-6.442,0-11.683,4.881-11.683,10.885" transform="translate(-176.267 -795.816)" fill="#040707"/>
      <path id="Trazado_11670" data-name="Trazado 11670" d="M177.082,809.18h.516c0-6.746,5.907-12.233,13.168-12.233h9.873c-.2-.177-.411-.346-.62-.513h-9.253c-7.545,0-13.684,5.716-13.684,12.746" transform="translate(-173.063 -792.843)" fill="#040707"/>
      <path id="Trazado_11671" data-name="Trazado 11671" d="M171.88,806.2h.513c0-7.77,6.808-14.092,15.172-14.092h7.274c-.312-.18-.628-.353-.954-.513h-6.319c-8.647,0-15.684,6.553-15.684,14.605" transform="translate(-169.862 -789.867)" fill="#040707"/>
      <path id="Trazado_11672" data-name="Trazado 11672" d="M166.679,803.432h.513c0-8.8,7.7-15.951,17.172-15.951h2.474a16.592,16.592,0,0,0-3.558-.386,16.836,16.836,0,0,0-1.943.116c-8.316,1.342-14.658,8.1-14.658,16.221" transform="translate(-166.661 -787.096)" fill="#040707"/>
      <path id="Trazado_11673" data-name="Trazado 11673" d="M183.309,831.538h-.823a.981.981,0,0,1-1.024.926H166.631c.022.274.053.55.088.821h14.743a1.8,1.8,0,0,0,1.847-1.748" transform="translate(-166.631 -814.449)" fill="#004729"/>
      <path id="Trazado_11674" data-name="Trazado 11674" d="M185.774,831.538h-1.025a2.8,2.8,0,0,1-2.912,2.675h-14.6c.067.345.138.688.223,1.026h14.374a3.828,3.828,0,0,0,3.937-3.7" transform="translate(-167.006 -814.449)" fill="#004729"/>
      <path id="Trazado_11675" data-name="Trazado 11675" d="M188.512,831.538h-1.027a4.74,4.74,0,0,1-4.912,4.536H168.437c.106.346.23.688.361,1.026h13.776a5.766,5.766,0,0,0,5.938-5.561" transform="translate(-167.743 -814.449)" fill="#004729"/>
      <path id="Trazado_11676" data-name="Trazado 11676" d="M191.674,831.538h-1.233a6.573,6.573,0,0,1-6.809,6.291H170.157c.187.421.384.832.6,1.233h12.873a7.805,7.805,0,0,0,8.042-7.524" transform="translate(-168.801 -814.449)" fill="#004729"/>
      <path id="Trazado_11677" data-name="Trazado 11677" d="M195.217,831.538h-1.233c0,4.494-3.951,8.151-8.809,8.151H172.663c.254.425.531.836.821,1.234h11.691c5.537,0,10.042-4.212,10.042-9.385" transform="translate(-170.343 -814.449)" fill="#004729"/>
      <path id="Trazado_11678" data-name="Trazado 11678" d="M199.283,831.538H197.84c0,5.465-4.8,9.909-10.7,9.909l-11.286,0a16.46,16.46,0,0,0,1.273,1.437l10.014,0c6.7,0,12.147-5.089,12.147-11.345" transform="translate(-172.304 -814.449)" fill="#004729"/>
      <path id="Trazado_11679" data-name="Trazado 11679" d="M204.021,831.538h-1.439c0,6.489-5.7,11.769-12.705,11.769H180.3a16.87,16.87,0,0,0,1.773,1.438h7.8c7.8,0,14.144-5.925,14.144-13.207" transform="translate(-175.046 -814.449)" fill="#004729"/>
      <path id="Trazado_11680" data-name="Trazado 11680" d="M209.717,831.538h-1.646c0,7.46-6.551,13.526-14.6,13.526h-7.33a16.6,16.6,0,0,0,3.232,1.642h4.1c8.96,0,16.249-6.8,16.249-15.169" transform="translate(-178.637 -814.449)" fill="#004729"/>
      <path id="Trazado_11681" data-name="Trazado 11681" d="M216.232,831.538c0,8.483-7.45,15.385-16.605,15.385h-3.482a16.683,16.683,0,0,0,17.037-4,16.33,16.33,0,0,0,4.694-11.386h-1.644" transform="translate(-184.795 -814.449)" fill="#004729"/>
    </g>
    <g id="Grupo_2202" data-name="Grupo 2202" transform="translate(208.126 788.522)">
      <path id="Trazado_11682" data-name="Trazado 11682" d="M566.515,818.915a21.376,21.376,0,0,1-4.047.486v.08a7.315,7.315,0,0,1,.972,3.642c0,5.3-2.875,7.246-7.247,7.246a14.423,14.423,0,0,1-1.862-.122l-.851,1.174a2.519,2.519,0,0,0-.567,1.255c0,.365.242.647.972.647h5.829c3.966,0,5.383,2.025,5.383,4.7a5.2,5.2,0,0,1-1.579,4.007c-1.781,1.741-4.978,2.145-7.651,2.145-2.226,0-4.613-.4-5.91-1.659a4.02,4.02,0,0,1-1.214-3.036,5.538,5.538,0,0,1,1.984-3.966v-.041a2.78,2.78,0,0,1-1.174-2.307,4.149,4.149,0,0,1,1.053-2.47l1.093-1.415v-.042c-1.5-1.052-2.55-2.954-2.55-6.152,0-5.181,2.914-7.044,7.205-7.044,1.9,0,3.4.608,5.464.608a25.579,25.579,0,0,0,4.574-.486ZM559.634,836h-5.87c-1.214.972-1.982,1.863-1.982,2.956a1.9,1.9,0,0,0,.566,1.538c.85.81,2.509.89,4.008.89,1.214,0,3.643-.08,4.938-1.295a2.69,2.69,0,0,0,.849-2.146C562.143,837.089,561.576,836,559.634,836Zm-3.32-17.162c-2.348,0-4.209.89-4.209,4.25,0,3.642,1.821,4.493,4.209,4.493s4.169-.851,4.169-4.493C560.484,819.724,558.662,818.835,556.314,818.835Z" transform="translate(-443.304 -806.337)" fill="#004729"/>
      <path id="Trazado_11683" data-name="Trazado 11683" d="M611.7,819.141a11.594,11.594,0,0,0-1.214-.08,5.936,5.936,0,0,0-5.06,2.549v13.925h-3.077V816.51h2.308l.4,1.943h.081a6.2,6.2,0,0,1,5.14-2.307,9.465,9.465,0,0,1,1.539.121Z" transform="translate(-476.293 -806.401)" fill="#004729"/>
      <path id="Trazado_11684" data-name="Trazado 11684" d="M285.521,827.106c-1.662.039-5.026.12-6.686,1.012-.931.484-1.133,1.662-1.133,2.714a2.413,2.413,0,0,0,2.349,2.593,9.728,9.728,0,0,0,5.51-1.377l-.04-4.943m.729,8.63-.243-1.056h-.12a11.2,11.2,0,0,1-6.241,1.461,5.038,5.038,0,0,1-5.1-5.229c0-1.9.4-3.97,2.634-5.1,2.268-1.094,6-1.094,8.386-1.177v-3.078c0-1.784-1.215-2.554-3.4-2.554a21.843,21.843,0,0,0-5.917,1.013l-.2-2.917a23.89,23.89,0,0,1,6.4-.69c3.565,0,6.159,1.174,6.159,4.7v14.629Z" transform="translate(-274.541 -806.561)" fill="#004729"/>
      <path id="Trazado_11685" data-name="Trazado 11685" d="M514.495,827.106c-1.662.039-5.027.12-6.688,1.012-.929.484-1.131,1.662-1.131,2.714a2.412,2.412,0,0,0,2.348,2.593,9.724,9.724,0,0,0,5.511-1.377l-.039-4.943m.729,8.63-.245-1.056h-.12a11.2,11.2,0,0,1-6.242,1.461,5.038,5.038,0,0,1-5.1-5.229c0-1.9.4-3.97,2.634-5.1,2.27-1.094,6-1.094,8.386-1.177v-3.078c0-1.784-1.214-2.554-3.4-2.554a21.858,21.858,0,0,0-5.918,1.013l-.2-2.917a23.9,23.9,0,0,1,6.4-.69c3.565,0,6.16,1.174,6.16,4.7v14.629Z" transform="translate(-415.465 -806.561)" fill="#004729"/>
      <path id="Trazado_11686" data-name="Trazado 11686" d="M331.916,804.337a10.014,10.014,0,0,0-4.456-.931c-3.119,0-4.659,1.415-4.659,7.132,0,5.267,1.175,6.968,3.97,6.968a10.962,10.962,0,0,0,5.144-1.294V804.337m.731,15.641-.285-1.135h-.121a10.9,10.9,0,0,1-5.633,1.5c-4.983,0-6.969-3.079-6.969-9.8,0-7.132,2.31-9.889,7.82-9.889a11.662,11.662,0,0,1,4.376.731h.08V790.8H335v29.174Z" transform="translate(-302.299 -790.804)" fill="#004729"/>
      <path id="Trazado_11687" data-name="Trazado 11687" d="M379.55,819.932a3.45,3.45,0,0,0-2.51-.73c-3,0-4.415.974-4.7,5.024h8.266c0-2.187-.243-3.566-1.056-4.295m4.176,6.728H372.216c.081,5.427,2.149,6.6,5.189,6.6a23.489,23.489,0,0,0,5.472-.689l.2,2.919a28.977,28.977,0,0,1-5.672.607c-5.51,0-8.349-2.675-8.349-9.8s2.432-9.889,7.984-9.889c2.108,0,3.85.487,4.943,1.7,1.176,1.258,1.743,3.243,1.743,6.2Z" transform="translate(-332.712 -806.561)" fill="#004729"/>
      <path id="Trazado_11688" data-name="Trazado 11688" d="M422.4,836.1c-5.51,0-8.347-2.675-8.347-9.8s2.837-9.889,8.347-9.889a33.48,33.48,0,0,1,4.821.325l-.2,2.918a33.7,33.7,0,0,0-4.619-.446c-3.119,0-5.187,1.377-5.187,7.093s2.068,6.968,5.187,6.968a28.484,28.484,0,0,0,4.619-.444l.2,2.917a33.968,33.968,0,0,1-4.821.364" transform="translate(-360.405 -806.561)" fill="#004729"/>
      <path id="Trazado_11689" data-name="Trazado 11689" d="M462.445,819.2c-3.121,0-5.187,1.377-5.187,7.093s2.066,6.968,5.187,6.968,5.146-1.256,5.146-6.968-2.027-7.093-5.146-7.093m0,16.9c-5.511,0-8.346-2.715-8.346-9.8,0-7.132,2.834-9.889,8.346-9.889,5.469,0,8.306,2.758,8.306,9.889S467.914,836.1,462.445,836.1Z" transform="translate(-385.053 -806.561)" fill="#004729"/>
      <path id="Trazado_11690" data-name="Trazado 11690" d="M637.584,819.2c-3.119,0-5.187,1.377-5.187,7.093s2.068,6.968,5.187,6.968,5.146-1.256,5.146-6.968-2.026-7.093-5.146-7.093m0,16.9c-5.511,0-8.346-2.715-8.346-9.8,0-7.132,2.835-9.889,8.346-9.889,5.47,0,8.306,2.758,8.306,9.889S643.054,836.1,637.584,836.1Z" transform="translate(-492.845 -806.561)" fill="#004729"/>
    </g>
  </g>
</svg>
